# xmcd
# 
# Track frame offsets:
#     150
#     17742
#     34937
#     56952
#     73480
#     93230
#     109837
#     127827
#     146010
# 
# Disc length: 2212
# 
# Revision: 0
# Processed by: cddbd v1.5.2PL0 Copyright (c) Steve Scherf et al.
# Submitted via: fre:ac v1.0.17
# 
DISCID=8308a209
DTITLE=Rick McGale - You've Got to Move...
DYEAR=0
DGENRE=Country
TTITLE0=Number 22
TTITLE1=You've Got to Move
TTITLE2=Coming Home
TTITLE3=Gipsy
TTITLE4=It's My Birthday
TTITLE5=Pickin'up On Life
TTITLE6=It's Time
TTITLE7=Amigo
TTITLE8=Keep in Touch
EXTD=
EXTT0=
EXTT1=
EXTT2=
EXTT3=
EXTT4=
EXTT5=
EXTT6=
EXTT7=
EXTT8=
PLAYORDER=
